<?xml version="1.0" encoding="utf-8"?><svg viewBox="0 0 16 16" xmlns="http://www.w3.org/2000/svg" xmlns:xlink="http://www.w3.org/1999/xlink"><style>:root>svg{display:none}:root>svg:target{display:block}</style><svg viewBox="0 0 9 16" id="facebook" xmlns="http://www.w3.org/2000/svg"><path d="M8.563.393C8.32.357 7.49.286 6.527.286c-2.018 0-3.402 1.232-3.402 3.49v1.947H.848v2.643h2.277v6.777h2.732V8.366h2.268l.348-2.643H5.857V4.036c0-.76.205-1.286 1.304-1.286h1.402V.393z"/></svg><svg viewBox="0 0 15 15" id="instagram" xmlns="http://www.w3.org/2000/svg"><path d="M10.143 7.286A2.29 2.29 0 017.857 9.57a2.29 2.29 0 01-2.286-2.285A2.29 2.29 0 017.857 5a2.29 2.29 0 012.286 2.286zm1.232 0a3.513 3.513 0 00-3.518-3.518A3.513 3.513 0 004.34 7.286a3.513 3.513 0 003.518 3.518 3.513 3.513 0 003.518-3.518zm.964-3.661a.82.82 0 00-.821-.821.82.82 0 00-.822.821.82.82 0 00.822.821.82.82 0 00.821-.821zM7.857 1.661c1 0 3.143-.08 4.045.276.312.125.544.277.786.518.24.241.392.474.517.786.357.902.277 3.045.277 4.045s.08 3.143-.277 4.044a2.192 2.192 0 01-.518.786 2.193 2.193 0 01-.785.518c-.902.357-3.045.277-4.045.277s-3.143.08-4.045-.277a2.193 2.193 0 01-.785-.518 2.192 2.192 0 01-.518-.786c-.357-.901-.277-3.044-.277-4.044 0-1-.08-3.143.277-4.045.125-.312.277-.545.518-.786.24-.24.473-.393.785-.518.902-.357 3.045-.276 4.045-.276zm6.857 5.625c0-.947.01-1.884-.044-2.83-.054-1.099-.304-2.072-1.107-2.876C12.758.777 11.786.527 10.687.473 9.742.42 8.805.43 7.857.43c-.946 0-1.884-.01-2.83.044C3.929.527 2.955.777 2.152 1.58c-.804.804-1.054 1.777-1.107 2.875C.99 5.402 1 6.34 1 7.285c0 .947-.009 1.885.045 2.831.053 1.098.303 2.072 1.107 2.875.803.804 1.777 1.054 2.875 1.107.946.054 1.884.045 2.83.045.947 0 1.884.009 2.83-.045 1.099-.053 2.072-.303 2.876-1.107.803-.803 1.053-1.777 1.107-2.875.053-.946.044-1.884.044-2.83z"/></svg><svg viewBox="0 0 16 16" id="search" xmlns="http://www.w3.org/2000/svg"><path d="M11.688 9.75A6.342 6.342 0 006.341 0 6.343 6.343 0 000 6.346a6.342 6.342 0 009.783 5.329l.288-.2L14.596 16 16 14.57l-4.52-4.524.207-.296zM9.892 2.8a4.977 4.977 0 011.466 3.542c0 1.337-.52 2.596-1.466 3.541A4.976 4.976 0 016.35 11.35a4.976 4.976 0 01-3.542-1.467 4.977 4.977 0 01-1.466-3.541c0-1.338.52-2.596 1.466-3.542A4.977 4.977 0 016.35 1.333c1.338 0 2.596.521 3.542 1.467z"/></svg><svg viewBox="0 0 15 12" id="twitter" xmlns="http://www.w3.org/2000/svg"><path d="M14.464 1.929a5.783 5.783 0 01-1.66.446A2.876 2.876 0 0014.07.785a5.676 5.676 0 01-1.83.697 2.877 2.877 0 00-2.107-.91A2.883 2.883 0 007.25 3.454c0 .224.027.447.071.661a8.197 8.197 0 01-5.946-3.018c-.25.429-.393.92-.393 1.456 0 1 .51 1.884 1.286 2.401A2.905 2.905 0 01.964 4.59v.036c0 1.402.991 2.563 2.313 2.83-.241.063-.5.099-.76.099-.187 0-.365-.018-.544-.045a2.889 2.889 0 002.697 2 5.776 5.776 0 01-3.58 1.232c-.242 0-.465-.009-.697-.036A8.15 8.15 0 004.82 12c5.304 0 8.206-4.393 8.206-8.205 0-.125 0-.25-.01-.375a6.2 6.2 0 001.447-1.491z"/></svg></svg>