<svg width="7" height="12" viewBox="0 0 7 12" fill="none" xmlns="http://www.w3.org/2000/svg">
<path d="M6.99777 0.928572C6.99777 0.828125 6.95312 0.73884 6.88616 0.671875L6.32812 0.11384C6.26116 0.046875 6.16071 0.00223231 6.07143 0.00223231C5.98214 0.00223231 5.8817 0.046875 5.81473 0.11384L0.613839 5.31473C0.546875 5.3817 0.502232 5.48214 0.502232 5.57143C0.502232 5.66071 0.546875 5.76116 0.613839 5.82812L5.81473 11.029C5.8817 11.096 5.98214 11.1406 6.07143 11.1406C6.16071 11.1406 6.26116 11.096 6.32812 11.029L6.88616 10.471C6.95312 10.404 6.99777 10.3036 6.99777 10.2143C6.99777 10.125 6.95312 10.0246 6.88616 9.95759L2.5 5.57143L6.88616 1.18527C6.95312 1.1183 6.99777 1.01786 6.99777 0.928572Z" fill="#171821"/>
</svg>
