<svg width="15" height="15" viewBox="0 0 15 15" xmlns="http://www.w3.org/2000/svg">
<path d="M10.1429 7.28571C10.1429 8.54464 9.11607 9.57143 7.85714 9.57143C6.59821 9.57143 5.57143 8.54464 5.57143 7.28571C5.57143 6.02679 6.59821 5 7.85714 5C9.11607 5 10.1429 6.02679 10.1429 7.28571ZM11.375 7.28571C11.375 5.33929 9.80357 3.76786 7.85714 3.76786C5.91071 3.76786 4.33929 5.33929 4.33929 7.28571C4.33929 9.23214 5.91071 10.8036 7.85714 10.8036C9.80357 10.8036 11.375 9.23214 11.375 7.28571ZM12.3393 3.625C12.3393 3.16964 11.9732 2.80357 11.5179 2.80357C11.0625 2.80357 10.6964 3.16964 10.6964 3.625C10.6964 4.08036 11.0625 4.44643 11.5179 4.44643C11.9732 4.44643 12.3393 4.08036 12.3393 3.625ZM7.85714 1.66071C8.85714 1.66071 11 1.58036 11.9018 1.9375C12.2143 2.0625 12.4464 2.21429 12.6875 2.45536C12.9286 2.69643 13.0804 2.92857 13.2054 3.24107C13.5625 4.14286 13.4821 6.28571 13.4821 7.28571C13.4821 8.28571 13.5625 10.4286 13.2054 11.3304C13.0804 11.6429 12.9286 11.875 12.6875 12.1161C12.4464 12.3571 12.2143 12.5089 11.9018 12.6339C11 12.9911 8.85714 12.9107 7.85714 12.9107C6.85714 12.9107 4.71429 12.9911 3.8125 12.6339C3.5 12.5089 3.26786 12.3571 3.02679 12.1161C2.78571 11.875 2.63393 11.6429 2.50893 11.3304C2.15179 10.4286 2.23214 8.28571 2.23214 7.28571C2.23214 6.28571 2.15179 4.14286 2.50893 3.24107C2.63393 2.92857 2.78571 2.69643 3.02679 2.45536C3.26786 2.21429 3.5 2.0625 3.8125 1.9375C4.71429 1.58036 6.85714 1.66071 7.85714 1.66071ZM14.7143 7.28571C14.7143 6.33929 14.7232 5.40179 14.6696 4.45536C14.6161 3.35714 14.3661 2.38393 13.5625 1.58036C12.7589 0.776786 11.7857 0.526786 10.6875 0.473214C9.74107 0.419642 8.80357 0.428572 7.85714 0.428572C6.91071 0.428572 5.97321 0.419642 5.02679 0.473214C3.92857 0.526786 2.95536 0.776786 2.15179 1.58036C1.34821 2.38393 1.09821 3.35714 1.04464 4.45536C0.991071 5.40179 1 6.33929 1 7.28571C1 8.23214 0.991071 9.16964 1.04464 10.1161C1.09821 11.2143 1.34821 12.1875 2.15179 12.9911C2.95536 13.7946 3.92857 14.0446 5.02679 14.0982C5.97321 14.1518 6.91071 14.1429 7.85714 14.1429C8.80357 14.1429 9.74107 14.1518 10.6875 14.0982C11.7857 14.0446 12.7589 13.7946 13.5625 12.9911C14.3661 12.1875 14.6161 11.2143 14.6696 10.1161C14.7232 9.16964 14.7143 8.23214 14.7143 7.28571Z"/>
</svg>
