<svg width="15" height="12" viewBox="0 0 15 12" xmlns="http://www.w3.org/2000/svg">
<path d="M14.4643 1.92857C13.9464 2.15179 13.3839 2.3125 12.8036 2.375C13.4018 2.01786 13.8571 1.45536 14.0714 0.785714C13.5179 1.11607 12.8929 1.35714 12.2411 1.48214C11.7143 0.919642 10.9643 0.571428 10.1339 0.571428C8.53571 0.571428 7.25 1.86607 7.25 3.45536C7.25 3.67857 7.27679 3.90179 7.32143 4.11607C4.92857 3.99107 2.79464 2.84821 1.375 1.09821C1.125 1.52679 0.982143 2.01786 0.982143 2.55357C0.982143 3.55357 1.49107 4.4375 2.26786 4.95536C1.79464 4.9375 1.34821 4.80357 0.964286 4.58929C0.964286 4.59821 0.964286 4.61607 0.964286 4.625C0.964286 6.02679 1.95536 7.1875 3.27679 7.45536C3.03571 7.51786 2.77679 7.55357 2.51786 7.55357C2.33036 7.55357 2.15179 7.53571 1.97321 7.50893C2.33929 8.65179 3.40179 9.48214 4.66964 9.50893C3.67857 10.2857 2.4375 10.7411 1.08929 10.7411C0.848214 10.7411 0.625 10.7321 0.392857 10.7054C1.66964 11.5268 3.1875 12 4.82143 12C10.125 12 13.0268 7.60714 13.0268 3.79464C13.0268 3.66964 13.0268 3.54464 13.0179 3.41964C13.5804 3.00893 14.0714 2.5 14.4643 1.92857Z"/>
</svg>
